<svg width="98" height="32" viewBox="0 0 98 32" fill="none" xmlns="http://www.w3.org/2000/svg">
<path d="M40.7569 5.62486V7.80334C41.0861 7.45479 41.5024 7.16432 42.0059 6.93195C42.5094 6.68022 43.1193 6.55435 43.8358 6.55435C44.4942 6.55435 45.1139 6.68022 45.6948 6.93195C46.2951 7.18369 46.8179 7.59034 47.2633 8.1519C47.728 8.6941 48.096 9.42026 48.3671 10.3304C48.6382 11.2405 48.7737 12.3443 48.7737 13.6417C48.7737 14.5712 48.6866 15.5006 48.5123 16.4301C48.3574 17.3596 48.0766 18.1923 47.6699 18.9281C47.2633 19.664 46.7114 20.2642 46.0143 20.729C45.3365 21.1744 44.4845 21.3971 43.4582 21.3971C42.7224 21.3971 42.1414 21.3002 41.7154 21.1066C41.2894 20.8936 40.9699 20.6515 40.7569 20.3804V27.4387L36.5742 28.4844V5.62486H40.7569ZM42.064 18.87C42.5675 18.87 42.9935 18.7054 43.342 18.3762C43.6906 18.0277 43.9617 17.5823 44.1553 17.0401C44.3683 16.4979 44.5136 15.8976 44.591 15.2392C44.6878 14.5615 44.7363 13.8934 44.7363 13.235C44.7363 12.17 44.6394 11.3276 44.4458 10.708C44.2715 10.0883 44.0585 9.63327 43.8068 9.3428C43.555 9.03297 43.3033 8.83933 43.0516 8.76187C42.8192 8.68442 42.6352 8.64569 42.4997 8.64569C42.1511 8.64569 41.8123 8.77156 41.4831 9.02329C41.1539 9.25566 40.9118 9.6139 40.7569 10.098V18.202C40.8537 18.3569 41.0086 18.5118 41.2216 18.6667C41.4346 18.8022 41.7154 18.87 42.064 18.87Z" fill="white"/>
<path d="M68.1992 5.79914C68.6833 7.65811 69.1093 9.17821 69.4772 10.3594C69.8451 11.5213 70.155 12.4992 70.4067 13.2931C70.6778 14.087 70.8811 14.7842 71.0167 15.3845C71.1716 15.9847 71.249 16.6528 71.249 17.3887C71.5782 17.1756 71.8977 16.953 72.2076 16.7206C72.5174 16.4689 72.7788 16.2365 72.9918 16.0235H74.2118C73.6889 16.8174 73.1371 17.4758 72.5561 17.9986C71.9752 18.5021 71.4136 18.9475 70.8714 19.3348C70.5229 20.09 69.9904 20.6225 69.2739 20.9323C68.5574 21.2421 67.8119 21.3971 67.0373 21.3971C66.1659 21.3971 65.4204 21.2809 64.8007 21.0485C64.1811 20.7968 63.6679 20.4676 63.2613 20.0609C62.874 19.6349 62.5835 19.1508 62.3899 18.6086C62.1962 18.0664 62.0994 17.4952 62.0994 16.8949C62.0994 16.2365 62.2543 15.7233 62.5642 15.3554C62.8934 14.9681 63.271 14.7745 63.697 14.7745C64.8782 14.7745 65.4688 15.2489 65.4688 16.1978C65.4688 16.5076 65.3623 16.769 65.1493 16.982C64.9363 17.195 64.6652 17.3015 64.336 17.3015C64.1811 17.3015 64.0165 17.2822 63.8422 17.2434C63.6873 17.1853 63.5614 17.0788 63.4646 16.9239C63.6195 17.6017 63.8713 18.1342 64.2198 18.5215C64.5877 18.9087 65.0525 19.1024 65.614 19.1024C66.0981 19.1024 66.4564 18.9862 66.6888 18.7538C66.9211 18.5021 67.0373 18.0761 67.0373 17.4758C67.0373 16.8368 66.9792 16.2655 66.863 15.7621C66.7662 15.2392 66.6113 14.668 66.3983 14.0483C66.1853 13.4287 65.9239 12.6928 65.614 11.8408C65.3042 10.9694 64.9557 9.84627 64.5684 8.47141C63.6002 10.5434 62.3221 11.8698 60.7342 12.4508C60.7342 12.6057 60.7342 12.7606 60.7342 12.9155C60.7536 13.0511 60.7633 13.1963 60.7633 13.3512C60.7633 14.4743 60.6665 15.5297 60.4728 16.5173C60.2792 17.4855 59.95 18.3375 59.4852 19.0733C59.0399 19.7898 58.4589 20.3611 57.7425 20.7871C57.026 21.1937 56.1449 21.3971 55.0992 21.3971C54.3828 21.3971 53.6953 21.2906 53.0369 21.0775C52.3979 20.8452 51.8267 20.4773 51.3232 19.9738C50.8197 19.4509 50.4131 18.7732 50.1033 17.9405C49.8128 17.0885 49.6676 16.0525 49.6676 14.8326C49.6676 13.9999 49.7547 13.1092 49.929 12.1603C50.1033 11.1921 50.4228 10.2917 50.8875 9.45899C51.3523 8.62632 51.9816 7.93889 52.7755 7.39669C53.5888 6.83513 54.6248 6.55435 55.8835 6.55435C57.1809 6.55435 58.2169 6.9029 58.9915 7.60002C59.7854 8.29713 60.3179 9.42026 60.589 10.9694C61.2668 10.8145 61.8767 10.3497 62.4189 9.57517C62.9805 8.78124 63.513 7.7162 64.0165 6.38007L68.1992 5.79914ZM55.9125 18.6667C56.3192 18.6667 56.6677 18.5311 56.9582 18.26C57.268 17.9696 57.5198 17.5823 57.7134 17.0982C57.9071 16.5947 58.0426 16.0041 58.1201 15.3264C58.2169 14.6486 58.2653 13.9128 58.2653 13.1188V12.7412C57.4907 12.567 57.1034 11.9957 57.1034 11.0275C57.1034 10.4078 57.3552 10.0012 57.8586 9.80754C57.6456 9.18789 57.3842 8.78124 57.0744 8.58759C56.7839 8.39395 56.5322 8.29713 56.3192 8.29713C55.8932 8.29713 55.5253 8.50046 55.2154 8.90711C54.925 9.29439 54.6829 9.79786 54.4893 10.4175C54.2956 11.0178 54.1504 11.6859 54.0536 12.4217C53.9761 13.1576 53.9374 13.8644 53.9374 14.5421C53.9374 15.4135 53.9955 16.1203 54.1117 16.6625C54.2472 17.2047 54.4118 17.621 54.6054 17.9115C54.7991 18.202 55.0121 18.4053 55.2445 18.5215C55.4768 18.6183 55.6995 18.6667 55.9125 18.6667Z" fill="white"/>
<path d="M76.838 2.11025V6.69958H78.6098V7.86143H76.838V16.5754C76.838 17.3887 76.9445 17.9309 77.1575 18.202C77.3899 18.4537 77.7868 18.5796 78.3484 18.5796C78.91 18.5796 79.3747 18.3375 79.7426 17.8534C80.1299 17.3693 80.3526 16.7593 80.4107 16.0235H81.6306C81.4757 17.2047 81.2046 18.1535 80.8173 18.87C80.43 19.5671 79.9943 20.1093 79.5102 20.4966C79.0261 20.8645 78.5323 21.1066 78.0289 21.2228C77.5254 21.339 77.08 21.3971 76.6927 21.3971C75.2017 21.3971 74.156 20.9904 73.5557 20.1771C72.9554 19.3444 72.6553 18.2504 72.6553 16.8949V7.86143H71.7258V6.69958H72.6553V2.69118L76.838 2.11025Z" fill="white"/>
<path d="M80.0796 2.83641C80.0796 2.19739 80.3023 1.65519 80.7477 1.20981C81.193 0.745067 81.7352 0.512695 82.3743 0.512695C83.0133 0.512695 83.5555 0.745067 84.0009 1.20981C84.4656 1.65519 84.698 2.19739 84.698 2.83641C84.698 3.47543 84.4656 4.01763 84.0009 4.46301C83.5555 4.90838 83.0133 5.13107 82.3743 5.13107C81.7352 5.13107 81.193 4.90838 80.7477 4.46301C80.3023 4.01763 80.0796 3.47543 80.0796 2.83641ZM84.5818 6.69958V16.5754C84.5818 17.3887 84.6883 17.9309 84.9013 18.202C85.1337 18.4537 85.5306 18.5796 86.0922 18.5796C86.3439 18.5796 86.5279 18.5602 86.6441 18.5215C86.7796 18.4827 86.8958 18.444 86.9926 18.4053C87.012 18.5021 87.0217 18.5989 87.0217 18.6957C87.0217 18.7926 87.0217 18.8894 87.0217 18.9862C87.0217 19.4703 86.9345 19.8673 86.7603 20.1771C86.6054 20.4869 86.3923 20.7387 86.1212 20.9323C85.8695 21.1066 85.5887 21.2228 85.2789 21.2809C84.9884 21.3583 84.7077 21.3971 84.4366 21.3971C82.9455 21.3971 81.8998 20.9904 81.2995 20.1771C80.6993 19.3444 80.3991 18.2504 80.3991 16.8949V6.69958H84.5818ZM95.7066 18.5796C95.4742 18.5602 95.2999 18.4827 95.1837 18.3472C95.0675 18.1923 95.0094 18.018 95.0094 17.8243C95.0094 17.5726 95.116 17.3306 95.329 17.0982C95.542 16.8465 95.8905 16.7206 96.3746 16.7206C96.9168 16.7206 97.3235 16.9045 97.5946 17.2725C97.8657 17.621 98.0012 18.0374 98.0012 18.5215C98.0012 18.8313 97.9431 19.1508 97.8269 19.48C97.7108 19.7898 97.5268 20.0803 97.2751 20.3514C97.0233 20.6031 96.7135 20.8161 96.3456 20.9904C95.9777 21.1453 95.5516 21.2228 95.0675 21.2228H87.0507L92.7438 8.26809H90.5944C90.1684 8.26809 89.8101 8.29713 89.5197 8.35522C89.2486 8.39395 89.113 8.50046 89.113 8.67473C89.113 8.75219 89.1324 8.79092 89.1711 8.79092C89.2292 8.79092 89.2873 8.81028 89.3454 8.84901C89.4229 8.88774 89.4809 8.9652 89.5197 9.08138C89.5778 9.19757 89.6068 9.40089 89.6068 9.69136C89.6068 10.1174 89.4713 10.4272 89.2002 10.6208C88.9484 10.8145 88.658 10.9113 88.3288 10.9113C87.9415 10.9113 87.5639 10.7854 87.196 10.5337C86.8474 10.2626 86.6731 9.85595 86.6731 9.31376C86.6731 9.02329 86.7312 8.73283 86.8474 8.44236C86.9636 8.13253 87.1379 7.85175 87.3702 7.60002C87.6026 7.32892 87.8931 7.11591 88.2416 6.961C88.5902 6.78672 88.9968 6.69958 89.4616 6.69958H97.4493L91.9015 18.9862C92.0177 18.9862 92.1823 18.9959 92.3953 19.0153C92.6083 19.0346 92.831 19.054 93.0633 19.0733C93.3151 19.0927 93.5571 19.1121 93.7895 19.1314C94.0412 19.1508 94.2639 19.1605 94.4576 19.1605C94.8061 19.1605 95.0966 19.1218 95.329 19.0443C95.5807 18.9668 95.7066 18.8119 95.7066 18.5796Z" fill="white"/>
<path d="M4.90198 4.61719C4.92419 4.97578 4.95549 5.38033 4.99123 5.84208L6.2816 22.5158C6.42583 24.3794 6.49794 25.3112 6.91571 25.9949C7.28319 26.5963 7.83163 27.066 8.48244 27.3365C9.22231 27.6441 10.1541 27.572 12.0177 27.4278L24.7883 26.4395C25.9965 26.346 26.813 26.2828 27.4242 26.1361C27.2192 26.6173 26.903 27.0461 26.4984 27.3854C25.8845 27.9003 24.9738 28.1104 23.1525 28.5305L10.6715 31.4095C8.85013 31.8296 7.93946 32.0397 7.16203 31.8457C6.47819 31.675 5.86592 31.2923 5.41298 30.7523C4.89806 30.1384 4.688 29.2277 4.26787 27.4064L0.508997 11.1107C0.0888713 9.28938 -0.121192 8.37871 0.0727997 7.60128C0.243439 6.91744 0.626189 6.30517 1.16619 5.85223C1.78009 5.33731 2.69077 5.12724 4.51212 4.70712L4.90198 4.61719Z" fill="#612BD3"/>
<path d="M18.0984 14.0876C17.8641 14.3459 17.5645 14.4891 17.1994 14.5173C16.9466 14.5369 16.7392 14.5035 16.5771 14.4171C16.414 14.3167 16.293 14.2131 16.2141 14.1062L15.7598 8.22966C15.8449 7.86993 16.0004 7.59658 16.2261 7.40963C16.4507 7.20863 16.6893 7.09836 16.9421 7.07881C17.0404 7.07121 17.176 7.08898 17.3488 7.13212C17.5357 7.17418 17.7291 7.30048 17.929 7.51104C18.1278 7.70755 18.3078 8.02559 18.4689 8.46516C18.6441 8.90364 18.7615 9.50903 18.8212 10.2813C18.8581 10.7588 18.8605 11.2459 18.8283 11.7428C18.809 12.2246 18.7374 12.668 18.6133 13.0731C18.5033 13.4771 18.3317 13.8153 18.0984 14.0876Z" fill="white"/>
<path fill-rule="evenodd" clip-rule="evenodd" d="M5.95565 5.09217C5.85721 3.82014 5.80799 3.18412 6.01794 2.67911C6.20262 2.23489 6.52319 1.86054 6.93371 1.60971C7.4004 1.32456 8.03642 1.27534 9.30845 1.1769L23.4232 0.0845554C24.6952 -0.0138868 25.3313 -0.0631079 25.8363 0.146846C26.2805 0.331527 26.6548 0.652097 26.9057 1.06261C27.1908 1.5293 27.24 2.16533 27.3385 3.43735L28.7327 21.4533C28.8312 22.7254 28.8804 23.3614 28.6705 23.8664C28.4858 24.3106 28.1652 24.6849 27.7547 24.9358C27.288 25.2209 26.652 25.2702 25.3799 25.3686L11.2651 26.4609C9.99315 26.5594 9.35712 26.6086 8.85212 26.3986C8.4079 26.214 8.03355 25.8934 7.78272 25.4829C7.49757 25.0162 7.44835 24.3802 7.3499 23.1081L5.95565 5.09217ZM15.6311 6.5657L15.509 4.986L12.4759 5.22049L13.7575 21.7969L16.7319 20.8041L16.3362 15.6859C16.5059 15.8705 16.7511 16.0281 17.072 16.1587C17.3918 16.2752 17.8185 16.3129 18.3521 16.2716C19.0963 16.2141 19.7016 16.0048 20.1681 15.6439C20.6476 15.2678 21.0141 14.8015 21.2677 14.2452C21.5214 13.6888 21.6783 13.0692 21.7385 12.3865C21.8128 11.7028 21.8238 11.0239 21.7717 10.3499C21.699 9.40906 21.5388 8.61627 21.2912 7.97151C21.0436 7.32674 20.7361 6.8208 20.3687 6.45368C20.0143 6.07144 19.6123 5.80587 19.1629 5.65699C18.7275 5.50701 18.2712 5.45048 17.7937 5.48739C17.2742 5.52756 16.8389 5.65303 16.488 5.8638C16.1359 6.06053 15.8503 6.29449 15.6311 6.5657Z" fill="white"/>
</svg>
